<?xml version="1.0" encoding="utf-8"?>
<!-- Generator: Adobe Illustrator 23.0.1, SVG Export Plug-In . SVG Version: 6.00 Build 0)  -->
<svg version="1.1" id="Capa_1" xmlns="http://www.w3.org/2000/svg" xmlns:xlink="http://www.w3.org/1999/xlink" x="0px" y="0px"
	 viewBox="0 0 512 512" style="enable-background:new 0 0 512 512;" xml:space="preserve">
<style type="text/css">
	.st0{fill-rule:evenodd;clip-rule:evenodd;fill:#C79369;}
	.st1{fill-rule:evenodd;clip-rule:evenodd;fill:#D9ECED;}
	.st2{fill-rule:evenodd;clip-rule:evenodd;fill:#080808;}
	.st3{fill-rule:evenodd;clip-rule:evenodd;fill:#E7B791;}
	.st4{fill-rule:evenodd;clip-rule:evenodd;fill:#F5F0F0;}
	.st5{fill-rule:evenodd;clip-rule:evenodd;fill:#323232;}
	.st6{fill-rule:evenodd;clip-rule:evenodd;fill:#1A1A1A;}
	.st7{fill-rule:evenodd;clip-rule:evenodd;fill:#5E3A1D;}
</style>
<g>
	<g>
		<rect x="345.9" y="122.8" class="st0" width="27.1" height="43.2"/>
		<path class="st1" d="M156,39.1c64.3-12.8,132.8,55.9,157,155.3c-28.1,32.9-67.2,56.9-113.1,66.1c-45.9,9.1-91.2,1.8-129.7-17.8
			C54.7,141.6,91.6,51.9,156,39.1z"/>
		<path class="st2" d="M331.6,173.8c-11,33.7-34.8,79.9-65.1,112l9,8.1c32.2-26.1,67.9-73.3,79.4-98.2
			C368.6,165.9,342.7,139.8,331.6,173.8z"/>
		<path class="st0" d="M211.7,199.5c14.6,28.8,42.6,67.1,74.3,91.8l-7,8.6c-32.7-19.1-71.4-56.6-85.3-77.4
			C177.2,197.6,196.9,170.5,211.7,199.5z"/>
		<rect x="169.8" y="157.1" class="st0" width="30.6" height="43.2"/>
		<path class="st3" d="M174.9,279.2l-10.5-56.7l5.4-39.9c10,1.6,20.2,1.6,30.6,0c7.1,3.6,14.1,22.2,12.1,37.8l-6.2,58.9L174.9,279.2
			z"/>
		<path class="st4" d="M188.6,272.8c65.6,0,119.3,80.7,123.8,182.9c-34,26.8-77,42.8-123.8,42.8s-89.8-16-123.8-42.8
			C69.3,353.5,123,272.8,188.6,272.8z"/>
		<path class="st4" d="M164.4,222.5c3.8,0.1,31.4-24.1,47.4-18.1c1,5.2,1.4,10.7,0.7,15.9l-6.1,58.3l-0.1,0.6h-31.5L164.4,222.5z"/>
		<path class="st3" d="M197.2,201.5c14.6,28.8,42.6,67.1,74.3,91.8l-7,8.6c-32.7-19.1-71.4-56.6-85.3-77.4
			C162.8,199.5,182.4,172.4,197.2,201.5z"/>
		<path class="st3" d="M275.3,287.8c3.3,2.3,3.2,4.6,0.9,6.2c5.3,2.7,7.1,8.8,5.3,11.4c-3.5,5.1-11.8,5.3-18.7,0.7
			c-6.9-4.7-9.6-12.6-6.2-17.6C260.1,283.4,268.5,283.1,275.3,287.8z"/>
		<path class="st4" d="M198.9,512c12.2,0,22.1-5,22.1-11.1c0-6.1-9.9-11.1-22.1-11.1c-12.1,0-22.1,5-22.1,11.1
			C176.8,507,186.7,512,198.9,512z"/>
		<rect x="346.7" y="146.5" class="st4" width="28.1" height="14.9"/>
		<g>
			<path class="st5" d="M337.2,497.8l-6.7-145l0-33.8l0-11.3h38.9c-2.8,63.4-5.7,126.7-8.5,190.1
				C352.9,497.8,345.1,497.8,337.2,497.8z"/>
			<polygon class="st5" points="330.4,307.7 330.9,307.7 330.4,319 330.4,319 			"/>
		</g>
		<polygon class="st6" points="320.8,305.8 386,305.8 386.8,319 320.8,319 		"/>
		<polygon class="st5" points="386.5,314.6 374.9,152.2 353.7,156.9 322.6,237.7 320.7,314.3 		"/>
		<path class="st4" d="M349.5,149.6c-3.3,50.8-2.1,75.4-24.9,93.2l-0.1-21.8l19.8-55.1l2.4-19.5L349.5,149.6z"/>
		<path class="st5" d="M348.8,146.5l0.2,29.8l-1.5,5.1l-15,48.2l-11.4,25.8l2.7-35.9l20.6-53.5l1.6-16.9c0.2-2.6,0-2.8,0-2.8
			L348.8,146.5z"/>
		<path class="st6" d="M342.4,173c-11,33.7-34.8,79.9-65.1,112l9,8.1c32.2-26.1,67.9-73.3,79.4-98.2
			C379.4,165.1,353.5,139,342.4,173z"/>
		<path class="st3" d="M272.2,279.7c-3.2,3-2.7,5.5,0.1,6.9c-5.3,3.8-6.2,10.8-3.8,13.3c4.6,4.9,13.7,3.8,20.3-2.4
			c6.7-6.2,8.3-15.3,3.7-20.1C288,272.4,278.9,273.4,272.2,279.7z"/>
		<path class="st6" d="M336.6,512c13.3,0,24.2-5.5,24.2-12.1c0-6.7-10.9-12.1-24.2-12.1c-13.3,0-24.2,5.5-24.2,12.1
			C312.4,506.5,323.3,512,336.6,512z"/>
		<g>
			
				<ellipse transform="matrix(0.4058 -0.914 0.914 0.4058 168.1427 458.0768)" class="st3" cx="436.4" cy="99.7" rx="15.2" ry="9.7"/>
			
				<ellipse transform="matrix(0.9993 -3.749987e-02 3.749987e-02 0.9993 -2.2927 11.2429)" class="st3" cx="298.6" cy="66.7" rx="9.7" ry="15.2"/>
			
				<ellipse transform="matrix(0.189 -0.982 0.982 0.189 208.2948 430.9868)" class="st3" cx="365.1" cy="89.4" rx="54.5" ry="70.7"/>
			<ellipse transform="matrix(0.189 -0.982 0.982 0.189 201.0522 403.7536)" class="st5" cx="345" cy="80.2" rx="6.9" ry="3.9"/>
			<ellipse transform="matrix(0.189 -0.982 0.982 0.189 227.3146 451.8099)" class="st5" cx="387.2" cy="88.3" rx="6.9" ry="3.9"/>
			<path class="st7" d="M427.6,49.9c-34.1-8-100,35.9-132.5,14.8c14.8-41.1,62.9-56.5,98.7-43.2C407.1,26.4,418.7,33.2,427.6,49.9z"
				/>
			<path class="st7" d="M404.3,30.4c-12.5,27.9,9.8,65.7,32,69.3C444.6,76.3,429,39.7,404.3,30.4z"/>
			<path class="st0" d="M384.2,113.7c-10.4,0-34.8-4.9-45.8-8.8C347.4,121.3,372,126.5,384.2,113.7z"/>
			<path class="st7" d="M427.4,51.1C381,30.7,303.8,80,295.4,20.5c22.3,13.7,26.7,5.2,51.8-2.5C372.6,10.2,407.6,13.9,427.4,51.1z"
				/>
			<path class="st7" d="M431.1,64.3C391.8,32.4,304.3,59.6,311.9,0c17.9,19.1,24.4,12.1,50.7,11.3C389.1,10.4,421.8,23.2,431.1,64.3
				z"/>
		</g>
		<g>
			
				<ellipse transform="matrix(0.9787 -0.2053 0.2053 0.9787 -13.6452 35.8038)" class="st7" cx="165.7" cy="83.7" rx="40.8" ry="40.4"/>
			
				<ellipse transform="matrix(0.9787 -0.2054 0.2054 0.9787 -15.3968 36.3792)" class="st4" cx="167.5" cy="92.4" rx="46.1" ry="31.5"/>
			
				<ellipse transform="matrix(0.9787 -0.2054 0.2054 0.9787 -15.9662 36.5622)" class="st7" cx="168.1" cy="95.2" rx="51.3" ry="28.6"/>
			
				<ellipse transform="matrix(0.9787 -0.2053 0.2053 0.9787 -22.1155 38.447)" class="st3" cx="174.2" cy="125.8" rx="58" ry="51.4"/>
			<g>
				
					<ellipse transform="matrix(0.9787 -0.2054 0.2054 0.9787 -20.5544 42.3622)" class="st5" cx="193.8" cy="120.2" rx="3.7" ry="6.5"/>
				
					<ellipse transform="matrix(0.9787 -0.2054 0.2054 0.9787 -23.1116 34.3848)" class="st5" cx="154.1" cy="128.5" rx="3.7" ry="6.5"/>
			</g>
			<path class="st0" d="M201,140c-9.6,4-34,9-45.7,9.6C170,161.2,194.7,156.5,201,140z"/>
			
				<ellipse transform="matrix(0.9071 -0.421 0.421 0.9071 -47.2244 61.8631)" class="st3" cx="116.5" cy="137.9" rx="9.7" ry="15.2"/>
			
				<ellipse transform="matrix(2.079966e-02 -0.9998 0.9998 2.079966e-02 112.3261 343.6178)" class="st3" cx="231.6" cy="114.5" rx="15.2" ry="9.7"/>
			<g>
				<path class="st7" d="M175.9,70.6c30.9,10.6,49.8,50.1,65.4,41.5C232.7,79.3,198,61,175.9,70.6z"/>
				<path class="st7" d="M206.7,71.7c-45.7,7-60.8,74.3-100.5,66.7C99.4,88.2,151.3,54.6,206.7,71.7z"/>
			</g>
		</g>
	</g>
</g>
</svg>
